<?xml version="1.0" standalone="no"?>
<!DOCTYPE svg PUBLIC "-//W3C//DTD SVG 20010904//EN"
 "http://www.w3.org/TR/2001/REC-SVG-20010904/DTD/svg10.dtd">
<svg version="1.0" xmlns="http://www.w3.org/2000/svg"
 width="600.000000pt" height="334.000000pt" viewBox="0 0 600.000000 334.000000"
 preserveAspectRatio="xMidYMid meet">

<g transform="translate(0.000000,334.000000) scale(0.100000,-0.100000)"
fill="#000000" stroke="none">
<path d="M3850 2994 c31 -31 45 -51 32 -45 -42 22 -43 6 -5 -69 37 -74 39 -75
91 -89 47 -13 61 -23 119 -90 37 -42 73 -79 82 -83 9 -4 11 -7 5 -7 -6 -1 -21
-51 -34 -112 -20 -93 -21 -114 -11 -133 11 -17 11 -19 0 -8 -18 16 -34 15
-166 -9 l-113 -21 0 -34 c0 -49 -18 -51 -22 -3 l-3 42 -205 82 c-113 46 -207
81 -209 79 -2 -2 -12 -48 -22 -104 -17 -95 -21 -104 -66 -155 -26 -30 -48 -55
-50 -55 -2 0 14 26 35 58 35 51 41 69 55 167 l16 110 -214 214 -213 214 -291
-109 -291 -109 -158 -241 -158 -241 -19 -155 -18 -156 41 -73 40 -74 -26 -133
-27 -134 47 -44 c61 -57 94 -58 194 -7 l72 37 7 94 c5 64 3 102 -5 122 -11 27
-8 34 50 119 53 78 66 91 89 90 24 -2 24 -2 3 -6 -16 -3 -41 -31 -78 -89 -46
-70 -53 -87 -44 -103 10 -19 15 -18 113 35 56 30 117 62 135 71 31 16 32 18
33 87 l1 71 24 -75 c13 -41 24 -77 24 -80 -1 -3 -25 -21 -55 -40 -30 -19 -55
-37 -55 -41 0 -3 75 -48 167 -100 l168 -94 28 -134 29 -134 -43 -42 -44 -43
-527 -5 c-503 -5 -528 -4 -528 13 0 11 41 50 104 100 l103 82 -15 61 c-15 58
-14 67 7 175 13 62 21 115 19 117 -2 3 -48 -43 -101 -101 -72 -79 -125 -151
-208 -285 l-111 -179 -41 -1 c-23 0 -105 -8 -182 -18 -154 -20 -153 -20 45
-41 345 -35 2011 -49 2661 -22 278 11 543 33 554 44 3 2 -68 13 -158 23 -89
10 -163 19 -165 20 -1 1 9 22 23 47 l26 46 -46 173 c-84 322 -74 302 -256 514
-87 103 -159 190 -159 194 0 3 58 37 129 75 l128 68 7 156 7 156 -83 83 c-83
83 -83 84 -98 160 l-15 77 -115 54 -115 53 55 -57z m-1040 -499 c46 -66 94
-134 106 -151 l23 -31 -68 -124 -68 -123 -147 -29 -148 -28 -44 28 c-41 26
-44 31 -44 73 0 34 7 53 28 77 27 32 29 32 140 39 103 6 114 5 128 -12 15 -18
15 -18 9 2 -4 17 5 31 41 63 26 22 56 41 68 41 18 1 19 2 5 10 -9 5 -34 54
-54 107 -21 54 -47 121 -57 148 -24 62 -21 59 82 -90z m346 -809 c17 -28 35
-50 40 -49 5 1 51 13 102 28 52 15 95 25 96 23 1 -1 28 -35 60 -75 76 -96 74
-106 -48 -233 -50 -52 -104 -112 -120 -132 l-28 -38 -79 0 c-44 0 -79 2 -79 5
0 3 7 17 16 31 15 22 16 45 11 167 -6 140 -6 142 18 171 l24 30 -26 50 c-14
28 -44 74 -67 101 l-41 50 45 -39 c25 -22 59 -62 76 -90z m607 14 c86 -23 87
-23 109 -4 l21 19 -15 -25 c-15 -24 -14 -28 18 -86 34 -60 36 -62 118 -94 58
-22 103 -33 145 -34 39 0 61 -5 61 -13 0 -6 19 -44 41 -83 l42 -72 -54 -54
-54 -55 -365 7 c-201 3 -369 10 -373 14 -5 4 46 70 114 145 l122 137 -17 92
c-9 50 -20 102 -23 115 -5 18 -2 23 8 19 8 -3 53 -15 102 -28z"/>
<path d="M1642 2508 l-72 -111 74 -140 74 -141 148 -28 c81 -15 149 -26 150
-25 1 1 6 41 11 89 l9 88 -31 5 c-16 2 -75 9 -129 14 -89 9 -101 8 -112 -7
-12 -15 -12 -15 -8 5 8 30 -81 141 -116 144 -22 1 -23 2 -4 6 18 3 28 23 54
105 17 55 30 101 28 103 -2 2 -36 -46 -76 -107z"/>
<path d="M1100 726 l0 -196 113 0 c185 1 237 24 237 108 0 36 -5 49 -30 72
-22 21 -26 29 -16 33 8 3 19 22 26 41 14 42 0 78 -42 109 -23 17 -47 21 -158
25 l-130 5 0 -197z m236 99 c12 -16 12 -22 0 -39 -11 -17 -26 -22 -80 -24
l-66 -3 0 47 0 46 66 -4 c50 -3 70 -9 80 -23z m12 -147 c18 -18 14 -56 -7 -68
-11 -5 -49 -10 -85 -10 l-66 0 0 45 0 45 73 0 c43 0 78 -5 85 -12z"/>
<path d="M1517 913 c-11 -11 -8 -225 4 -268 21 -78 76 -115 172 -115 50 0 72
5 98 23 59 39 69 73 69 230 l0 138 -42 -3 -43 -3 -5 -137 c-6 -153 -10 -164
-71 -174 -29 -5 -41 -1 -65 19 l-29 25 -3 136 -4 136 -37 0 c-21 0 -41 -3 -44
-7z"/>
<path d="M1950 726 l0 -196 140 0 140 0 0 40 0 40 -95 0 -94 0 -3 153 -3 152
-42 3 -43 3 0 -195z"/>
<path d="M2280 725 l0 -195 140 0 140 0 0 40 0 40 -95 0 -95 0 0 155 0 155
-45 0 -45 0 0 -195z"/>
<path d="M2777 913 c-4 -3 -7 -91 -7 -195 l0 -189 43 3 42 3 5 105 5 105 50
-85 c69 -116 81 -115 152 5 l53 90 0 -112 0 -113 45 0 45 0 -2 193 -3 192 -36
3 -35 3 -68 -116 c-37 -63 -71 -115 -75 -115 -3 0 -37 52 -75 115 -65 109 -70
115 -101 115 -17 0 -35 -3 -38 -7z"/>
<path d="M3407 888 c-8 -18 -47 -104 -86 -191 -39 -86 -71 -159 -71 -162 0 -3
20 -5 45 -5 43 0 46 2 61 40 l16 40 93 0 92 0 16 -40 c15 -39 17 -40 62 -40
56 0 60 -18 -45 211 l-79 174 -45 3 c-43 3 -46 1 -59 -30z m108 -188 c6 -18 2
-20 -49 -20 -31 0 -56 3 -56 7 0 4 12 38 27 76 l27 68 22 -56 c13 -30 26 -64
29 -75z"/>
<path d="M3667 914 c-4 -4 -7 -22 -7 -41 l0 -33 65 0 65 0 0 -156 0 -155 43 3
42 3 3 153 3 152 60 0 60 0 -3 38 -3 37 -161 3 c-88 1 -163 -1 -167 -4z"/>
<path d="M4050 726 l0 -196 45 0 45 0 0 55 0 55 40 0 c37 0 42 -4 76 -55 36
-54 37 -55 87 -55 l49 0 -17 28 c-10 15 -29 42 -42 60 l-25 34 31 30 c37 36
46 64 38 119 -11 83 -61 110 -214 117 l-113 5 0 -197z m218 98 c28 -19 29 -64
3 -88 -11 -10 -43 -20 -75 -23 l-56 -6 0 67 0 66 53 0 c31 0 61 -6 75 -16z"/>
<path d="M4454 907 c-2 -7 -3 -94 -2 -192 l3 -180 43 -3 42 -3 0 195 0 196
-40 0 c-24 0 -43 -5 -46 -13z"/>
<path d="M4600 913 c1 -5 29 -48 64 -97 l63 -90 -61 -85 c-34 -47 -65 -92 -70
-98 -5 -10 5 -13 43 -13 l50 0 46 65 c26 36 48 65 50 65 1 0 22 -29 45 -65
l42 -65 50 0 c60 0 61 -2 -22 113 -39 55 -59 91 -54 99 4 7 32 45 61 85 29 40
53 77 53 82 0 6 -20 11 -44 11 -41 0 -45 -2 -85 -60 -23 -33 -46 -60 -49 -60
-4 0 -16 13 -25 30 -42 71 -66 90 -113 90 -24 0 -44 -3 -44 -7z"/>
<path d="M1267 374 c-4 -4 -7 -40 -7 -81 l0 -73 53 0 c66 0 97 24 97 75 0 43
-29 75 -67 75 -16 0 -37 3 -48 6 -11 3 -24 2 -28 -2z m107 -40 c9 -8 16 -26
16 -39 0 -35 -26 -55 -71 -55 l-39 0 0 55 0 55 39 0 c23 0 46 -7 55 -16z"/>
<path d="M1488 373 l-38 -4 0 -75 0 -74 55 0 c30 0 55 5 55 10 0 6 -20 10 -45
10 -41 0 -45 2 -45 25 0 23 4 25 40 25 22 0 40 5 40 10 0 6 -18 10 -40 10 -36
0 -40 2 -40 26 0 24 3 25 38 22 20 -1 38 2 40 7 4 12 -9 13 -60 8z"/>
<path d="M1635 370 c-44 -17 -61 -71 -37 -117 21 -39 108 -49 120 -14 4 11 0
12 -14 6 -52 -23 -94 0 -94 51 0 45 36 71 80 56 37 -13 49 1 14 17 -29 13 -41
13 -69 1z"/>
<path d="M1795 370 c-36 -14 -50 -41 -46 -92 3 -56 98 -79 139 -35 37 39 28
98 -19 122 -31 17 -45 18 -74 5z m83 -37 c30 -41 0 -93 -54 -93 -37 0 -54 21
-54 64 0 50 75 71 108 29z"/>
<path d="M2137 373 c-4 -3 -7 -39 -7 -80 l0 -73 55 0 c30 0 55 5 55 10 0 6
-20 10 -45 10 -41 0 -45 2 -45 25 0 23 4 25 40 25 22 0 40 5 40 10 0 6 -18 10
-41 10 -36 0 -40 2 -37 23 2 18 9 22 42 22 23 0 41 5 43 13 3 8 -10 12 -44 12
-28 0 -53 -3 -56 -7z"/>
<path d="M3628 373 l-48 -4 0 -75 0 -74 61 0 c37 0 58 4 54 10 -3 6 -26 10
-51 10 -40 0 -44 2 -44 25 0 23 4 25 40 25 22 0 40 5 40 10 0 6 -18 10 -41 10
-36 0 -40 2 -37 23 2 18 10 23 46 25 23 2 42 7 42 13 0 5 -3 8 -7 7 -5 -1 -29
-3 -55 -5z"/>
<path d="M3716 371 c-8 -13 18 -26 34 -16 6 4 10 -18 10 -64 0 -56 3 -71 15
-71 12 0 15 15 15 71 0 55 3 70 13 66 8 -3 20 -1 28 4 10 6 5 9 -17 9 -17 0
-45 3 -62 6 -17 4 -32 1 -36 -5z"/>
<path d="M4284 368 c-6 -9 -1 -10 31 -12 18 -1 20 -9 23 -68 2 -38 7 -68 12
-68 5 0 10 30 12 68 3 62 5 67 26 66 12 -1 22 4 22 10 0 13 -118 17 -126 4z"/>
<path d="M1950 295 l0 -75 49 0 c64 0 95 24 95 73 0 55 -26 77 -91 77 l-53 0
0 -75z m108 43 c7 -7 12 -26 12 -43 0 -41 -16 -55 -62 -55 l-38 0 0 55 0 55
38 0 c21 0 43 -5 50 -12z"/>
<path d="M2345 361 c29 -6 30 -8 33 -74 4 -86 22 -88 22 -2 0 58 2 65 19 65
11 0 23 5 26 10 4 6 -19 10 -62 9 -47 -1 -59 -3 -38 -8z"/>
<path d="M2480 295 c0 -43 4 -75 10 -75 6 0 10 16 10 35 0 35 0 35 45 35 45 0
45 0 45 -35 0 -19 5 -35 10 -35 6 0 10 32 10 75 0 43 -4 75 -10 75 -5 0 -10
-13 -10 -30 0 -29 -2 -30 -45 -30 -43 0 -45 1 -45 30 0 17 -4 30 -10 30 -6 0
-10 -32 -10 -75z"/>
<path d="M2660 295 l0 -75 55 0 c30 0 55 5 55 10 0 6 -20 10 -45 10 -41 0 -45
2 -45 25 0 23 4 25 40 25 22 0 40 5 40 10 0 6 -18 10 -41 10 -36 0 -40 2 -37
23 2 18 11 23 48 28 l45 6 -57 1 -58 2 0 -75z"/>
<path d="M2870 295 c0 -43 4 -75 10 -75 6 0 10 26 10 58 l0 57 30 -47 c17 -27
34 -48 38 -48 5 0 19 19 33 43 l24 42 3 -52 c5 -81 22 -63 22 22 0 41 -4 75
-9 75 -5 0 -23 -22 -40 -50 -17 -27 -33 -50 -35 -50 -3 0 -17 22 -33 50 -40
72 -53 66 -53 -25z"/>
<path d="M3101 298 c-31 -70 -33 -104 -4 -60 21 30 92 32 100 2 3 -11 11 -20
19 -20 10 0 10 7 -3 38 -30 73 -54 112 -67 112 -7 0 -27 -32 -45 -72z m64 16
c19 -46 20 -44 -15 -44 -16 0 -30 3 -30 7 0 9 23 73 27 73 1 0 10 -16 18 -36z"/>
<path d="M3250 295 c0 -60 3 -75 15 -75 9 0 15 9 15 25 0 20 5 25 24 25 14 0
30 -10 40 -25 9 -14 21 -25 27 -25 7 0 5 10 -4 24 -14 21 -14 26 -2 36 18 15
20 61 3 78 -7 7 -36 12 -65 12 l-53 0 0 -75z m85 55 c20 -7 26 -16 23 -33 -2
-18 -10 -23 -40 -25 -37 -3 -38 -3 -38 32 0 39 9 43 55 26z"/>
<path d="M3420 295 c0 -43 4 -75 10 -75 6 0 10 8 10 19 0 10 7 25 16 32 14 11
20 9 46 -20 40 -45 56 -35 17 12 l-32 38 34 35 c48 50 14 43 -38 -8 l-43 -42
0 42 c0 23 -4 42 -10 42 -6 0 -10 -32 -10 -75z"/>
<path d="M3930 295 c0 -43 4 -75 10 -75 6 0 10 26 10 58 l1 57 27 -47 c15 -27
32 -48 37 -48 6 0 21 21 35 47 l25 48 3 -58 c4 -84 22 -70 22 18 0 45 -4 75
-10 75 -6 0 -25 -22 -42 -50 -17 -27 -32 -50 -34 -50 -1 0 -16 23 -33 50 -17
28 -35 50 -41 50 -6 0 -10 -31 -10 -75z"/>
<path d="M4161 304 c-17 -36 -31 -70 -31 -75 0 -17 19 -9 25 11 5 16 15 20 50
20 35 0 45 -4 50 -20 3 -11 13 -20 20 -20 18 0 -48 144 -68 148 -10 2 -26 -20
-46 -64z m79 -26 c0 -5 -16 -8 -35 -8 -19 0 -35 2 -35 5 0 2 8 20 17 40 l17
36 18 -33 c9 -18 17 -36 18 -40z"/>
<path d="M4440 295 c0 -43 4 -75 10 -75 6 0 10 11 10 25 0 20 5 25 25 25 15 0
31 -9 41 -25 9 -14 23 -25 30 -25 12 0 12 4 -2 25 -15 22 -15 26 0 40 41 41 7
85 -65 85 l-49 0 0 -75z m77 59 c24 -7 35 -27 27 -49 -4 -10 -20 -15 -45 -15
-36 0 -39 2 -39 28 0 42 10 48 57 36z"/>
<path d="M4610 295 c0 -43 4 -75 10 -75 6 0 10 32 10 75 0 43 -4 75 -10 75 -6
0 -10 -32 -10 -75z"/>
<path d="M4686 335 l27 -36 -26 -36 c-34 -47 -24 -58 13 -15 l28 34 23 -31
c12 -17 29 -31 37 -31 9 0 3 13 -17 39 l-30 38 24 33 c31 43 22 55 -12 16
l-25 -30 -20 27 c-11 15 -26 27 -34 27 -11 0 -8 -10 12 -35z"/>
</g>
</svg>
